<mxfile host="65bd71144e">
    <diagram id="qiU-ubtetE8YaTqNC5PJ" name="Page-1">
        <mxGraphModel dx="1575" dy="1098" grid="1" gridSize="10" guides="1" tooltips="1" connect="1" arrows="1" fold="1" page="1" pageScale="1" pageWidth="850" pageHeight="1100" math="0" shadow="0">
            <root>
                <mxCell id="0"/>
                <mxCell id="1" parent="0"/>
                <mxCell id="4" value="" style="edgeStyle=none;html=1;" parent="1" source="2" edge="1">
                    <mxGeometry relative="1" as="geometry">
                        <mxPoint x="365" y="185" as="targetPoint"/>
                    </mxGeometry>
                </mxCell>
                <mxCell id="2" value="Get IMU data&lt;br&gt;Calculate Magnitudes" style="rounded=0;whiteSpace=wrap;html=1;" parent="1" vertex="1">
                    <mxGeometry x="305" y="85" width="120" height="60" as="geometry"/>
                </mxCell>
                <mxCell id="8" value="" style="edgeStyle=none;html=1;" parent="1" source="5" target="7" edge="1">
                    <mxGeometry relative="1" as="geometry"/>
                </mxCell>
                <mxCell id="13" value="Sí" style="edgeLabel;html=1;align=center;verticalAlign=middle;resizable=0;points=[];" parent="8" vertex="1" connectable="0">
                    <mxGeometry x="-0.3582" y="-1" relative="1" as="geometry">
                        <mxPoint x="-1" y="-1" as="offset"/>
                    </mxGeometry>
                </mxCell>
                <mxCell id="15" value="" style="edgeStyle=none;html=1;" parent="1" source="5" target="14" edge="1">
                    <mxGeometry relative="1" as="geometry"/>
                </mxCell>
                <mxCell id="16" value="No" style="edgeLabel;html=1;align=center;verticalAlign=middle;resizable=0;points=[];" parent="15" vertex="1" connectable="0">
                    <mxGeometry x="-0.3957" y="-1" relative="1" as="geometry">
                        <mxPoint as="offset"/>
                    </mxGeometry>
                </mxCell>
                <mxCell id="5" value="G&amp;gt;0.09" style="rhombus;whiteSpace=wrap;html=1;rounded=0;" parent="1" vertex="1">
                    <mxGeometry x="325" y="185" width="80" height="80" as="geometry"/>
                </mxCell>
                <mxCell id="10" value="" style="edgeStyle=none;html=1;" parent="1" source="7" target="9" edge="1">
                    <mxGeometry relative="1" as="geometry">
                        <Array as="points"/>
                    </mxGeometry>
                </mxCell>
                <mxCell id="11" value="No" style="edgeLabel;html=1;align=center;verticalAlign=middle;resizable=0;points=[];" parent="10" vertex="1" connectable="0">
                    <mxGeometry x="-0.1806" relative="1" as="geometry">
                        <mxPoint as="offset"/>
                    </mxGeometry>
                </mxCell>
                <mxCell id="7" value="moving" style="rhombus;whiteSpace=wrap;html=1;rounded=0;" parent="1" vertex="1">
                    <mxGeometry x="460" y="185" width="80" height="80" as="geometry"/>
                </mxCell>
                <mxCell id="62" style="edgeStyle=none;html=1;" edge="1" parent="1" source="9">
                    <mxGeometry relative="1" as="geometry">
                        <mxPoint x="750" y="60" as="targetPoint"/>
                        <Array as="points">
                            <mxPoint x="750" y="225"/>
                        </Array>
                    </mxGeometry>
                </mxCell>
                <mxCell id="9" value="moving = true" style="whiteSpace=wrap;html=1;rounded=0;" parent="1" vertex="1">
                    <mxGeometry x="600" y="195" width="120" height="60" as="geometry"/>
                </mxCell>
                <mxCell id="23" value="" style="edgeStyle=none;html=1;" parent="1" source="14" edge="1">
                    <mxGeometry relative="1" as="geometry">
                        <mxPoint x="365" y="435" as="targetPoint"/>
                        <Array as="points">
                            <mxPoint x="365" y="405"/>
                        </Array>
                    </mxGeometry>
                </mxCell>
                <mxCell id="24" value="Sí" style="edgeLabel;html=1;align=center;verticalAlign=middle;resizable=0;points=[];" parent="23" vertex="1" connectable="0">
                    <mxGeometry x="-0.3769" y="1" relative="1" as="geometry">
                        <mxPoint x="-1" y="4" as="offset"/>
                    </mxGeometry>
                </mxCell>
                <mxCell id="14" value="moving" style="rhombus;whiteSpace=wrap;html=1;rounded=0;" parent="1" vertex="1">
                    <mxGeometry x="325" y="305" width="80" height="80" as="geometry"/>
                </mxCell>
                <mxCell id="17" value="" style="endArrow=classic;html=1;exitX=0;exitY=0.5;exitDx=0;exitDy=0;" parent="1" source="14" edge="1">
                    <mxGeometry width="50" height="50" relative="1" as="geometry">
                        <mxPoint x="220" y="335" as="sourcePoint"/>
                        <mxPoint x="240" y="55" as="targetPoint"/>
                        <Array as="points">
                            <mxPoint x="240" y="345"/>
                        </Array>
                    </mxGeometry>
                </mxCell>
                <mxCell id="20" value="No" style="edgeLabel;html=1;align=center;verticalAlign=middle;resizable=0;points=[];" parent="17" vertex="1" connectable="0">
                    <mxGeometry x="-0.8261" y="1" relative="1" as="geometry">
                        <mxPoint x="-12" y="-1" as="offset"/>
                    </mxGeometry>
                </mxCell>
                <mxCell id="18" value="" style="endArrow=none;dashed=1;html=1;" parent="1" edge="1">
                    <mxGeometry width="50" height="50" relative="1" as="geometry">
                        <mxPoint x="190" y="55" as="sourcePoint"/>
                        <mxPoint x="750" y="55" as="targetPoint"/>
                        <Array as="points">
                            <mxPoint x="210" y="55"/>
                        </Array>
                    </mxGeometry>
                </mxCell>
                <mxCell id="19" value="Loop" style="text;html=1;align=center;verticalAlign=middle;resizable=0;points=[];autosize=1;strokeColor=none;fillColor=none;" parent="1" vertex="1">
                    <mxGeometry x="180" y="30" width="50" height="30" as="geometry"/>
                </mxCell>
                <mxCell id="21" value="chargingState == 0" style="text;html=1;align=center;verticalAlign=middle;resizable=0;points=[];autosize=1;strokeColor=none;fillColor=none;" parent="1" vertex="1">
                    <mxGeometry x="380" y="30" width="120" height="30" as="geometry"/>
                </mxCell>
                <mxCell id="27" style="edgeStyle=none;html=1;" parent="1" source="25" edge="1">
                    <mxGeometry relative="1" as="geometry">
                        <mxPoint x="240.0000000000001" y="55" as="targetPoint"/>
                        <Array as="points">
                            <mxPoint x="240" y="475"/>
                        </Array>
                    </mxGeometry>
                </mxCell>
                <mxCell id="28" value="&amp;nbsp;-1 (error)&amp;nbsp;" style="edgeLabel;html=1;align=center;verticalAlign=middle;resizable=0;points=[];" parent="27" vertex="1" connectable="0">
                    <mxGeometry x="-0.8047" y="-1" relative="1" as="geometry">
                        <mxPoint x="10" y="1" as="offset"/>
                    </mxGeometry>
                </mxCell>
                <mxCell id="33" value="" style="edgeStyle=none;html=1;" parent="1" source="25" target="32" edge="1">
                    <mxGeometry relative="1" as="geometry">
                        <Array as="points">
                            <mxPoint x="365" y="525"/>
                        </Array>
                    </mxGeometry>
                </mxCell>
                <mxCell id="25" value="determineSide()" style="rhombus;whiteSpace=wrap;html=1;" parent="1" vertex="1">
                    <mxGeometry x="307.5" y="435" width="115" height="80" as="geometry"/>
                </mxCell>
                <mxCell id="36" value="" style="edgeStyle=none;html=1;fontSize=14;" parent="1" source="32" target="35" edge="1">
                    <mxGeometry relative="1" as="geometry"/>
                </mxCell>
                <mxCell id="32" value="moving = false" style="whiteSpace=wrap;html=1;" parent="1" vertex="1">
                    <mxGeometry x="305" y="545" width="120" height="60" as="geometry"/>
                </mxCell>
                <mxCell id="40" value="" style="edgeStyle=none;html=1;fontSize=14;" parent="1" source="35" target="39" edge="1">
                    <mxGeometry relative="1" as="geometry"/>
                </mxCell>
                <mxCell id="35" value="Recuperar lado anterior&lt;br&gt;Poner lado nuevo&lt;br&gt;(biblioteca .preferences)" style="whiteSpace=wrap;html=1;" parent="1" vertex="1">
                    <mxGeometry x="297.5" y="635" width="135" height="60" as="geometry"/>
                </mxCell>
                <mxCell id="42" value="" style="edgeStyle=none;html=1;fontSize=14;" parent="1" source="39" target="41" edge="1">
                    <mxGeometry relative="1" as="geometry"/>
                </mxCell>
                <mxCell id="43" value="No" style="edgeLabel;html=1;align=center;verticalAlign=middle;resizable=0;points=[];fontSize=14;" parent="42" vertex="1" connectable="0">
                    <mxGeometry x="-0.2465" relative="1" as="geometry">
                        <mxPoint as="offset"/>
                    </mxGeometry>
                </mxCell>
                <mxCell id="46" value="" style="edgeStyle=none;html=1;fontSize=14;" parent="1" source="39" target="45" edge="1">
                    <mxGeometry relative="1" as="geometry"/>
                </mxCell>
                <mxCell id="47" value="Sí" style="edgeLabel;html=1;align=center;verticalAlign=middle;resizable=0;points=[];fontSize=14;" parent="46" vertex="1" connectable="0">
                    <mxGeometry x="-0.5683" y="-2" relative="1" as="geometry">
                        <mxPoint x="2" y="11" as="offset"/>
                    </mxGeometry>
                </mxCell>
                <mxCell id="39" value="Side != lastSide" style="rhombus;whiteSpace=wrap;html=1;" parent="1" vertex="1">
                    <mxGeometry x="317.5" y="725" width="95" height="80" as="geometry"/>
                </mxCell>
                <mxCell id="41" value="goToSleep()" style="whiteSpace=wrap;html=1;" parent="1" vertex="1">
                    <mxGeometry x="145" y="735" width="120" height="60" as="geometry"/>
                </mxCell>
                <mxCell id="49" value="" style="edgeStyle=none;html=1;fontSize=14;" parent="1" source="45" target="48" edge="1">
                    <mxGeometry relative="1" as="geometry"/>
                </mxCell>
                <mxCell id="45" value="SendHMI()" style="whiteSpace=wrap;html=1;" parent="1" vertex="1">
                    <mxGeometry x="305" y="855" width="120" height="60" as="geometry"/>
                </mxCell>
                <mxCell id="50" style="edgeStyle=none;html=1;entryX=0.5;entryY=1;entryDx=0;entryDy=0;fontSize=14;" parent="1" source="48" target="41" edge="1">
                    <mxGeometry relative="1" as="geometry">
                        <Array as="points">
                            <mxPoint x="205" y="1015"/>
                        </Array>
                    </mxGeometry>
                </mxCell>
                <mxCell id="51" value="No" style="edgeLabel;html=1;align=center;verticalAlign=middle;resizable=0;points=[];fontSize=14;" parent="50" vertex="1" connectable="0">
                    <mxGeometry x="-0.7194" relative="1" as="geometry">
                        <mxPoint as="offset"/>
                    </mxGeometry>
                </mxCell>
                <mxCell id="53" value="" style="edgeStyle=none;html=1;fontSize=14;" parent="1" source="48" target="52" edge="1">
                    <mxGeometry relative="1" as="geometry"/>
                </mxCell>
                <mxCell id="54" value="Sí" style="edgeLabel;html=1;align=center;verticalAlign=middle;resizable=0;points=[];fontSize=14;" parent="53" vertex="1" connectable="0">
                    <mxGeometry x="-0.606" y="-1" relative="1" as="geometry">
                        <mxPoint x="1" y="12" as="offset"/>
                    </mxGeometry>
                </mxCell>
                <mxCell id="48" value="connectWiFi()" style="rhombus;whiteSpace=wrap;html=1;" parent="1" vertex="1">
                    <mxGeometry x="317.5" y="975" width="95" height="80" as="geometry"/>
                </mxCell>
                <mxCell id="57" value="" style="edgeStyle=none;html=1;fontSize=14;" parent="1" source="52" target="56" edge="1">
                    <mxGeometry relative="1" as="geometry"/>
                </mxCell>
                <mxCell id="58" value="No" style="edgeLabel;html=1;align=center;verticalAlign=middle;resizable=0;points=[];fontSize=14;" parent="57" vertex="1" connectable="0">
                    <mxGeometry x="-0.402" y="-2" relative="1" as="geometry">
                        <mxPoint x="2" y="5" as="offset"/>
                    </mxGeometry>
                </mxCell>
                <mxCell id="52" value="demo" style="rhombus;whiteSpace=wrap;html=1;" parent="1" vertex="1">
                    <mxGeometry x="317.5" y="1105" width="95" height="80" as="geometry"/>
                </mxCell>
                <mxCell id="60" value="" style="edgeStyle=none;html=1;fontSize=14;" parent="1" source="56" target="59" edge="1">
                    <mxGeometry relative="1" as="geometry"/>
                </mxCell>
                <mxCell id="56" value="Mandar datos a servidor (mac, side, batt)" style="whiteSpace=wrap;html=1;" parent="1" vertex="1">
                    <mxGeometry x="305" y="1235" width="120" height="60" as="geometry"/>
                </mxCell>
                <mxCell id="61" style="edgeStyle=none;html=1;entryX=0.5;entryY=1;entryDx=0;entryDy=0;fontSize=14;" parent="1" source="59" target="41" edge="1">
                    <mxGeometry relative="1" as="geometry">
                        <Array as="points">
                            <mxPoint x="205" y="1355"/>
                        </Array>
                    </mxGeometry>
                </mxCell>
                <mxCell id="59" value="Obtener hora" style="whiteSpace=wrap;html=1;" parent="1" vertex="1">
                    <mxGeometry x="305" y="1325" width="120" height="60" as="geometry"/>
                </mxCell>
                <mxCell id="63" value="side != 1" style="text;html=1;align=center;verticalAlign=middle;resizable=0;points=[];autosize=1;strokeColor=none;fillColor=none;" vertex="1" parent="1">
                    <mxGeometry x="380" y="510" width="70" height="30" as="geometry"/>
                </mxCell>
            </root>
        </mxGraphModel>
    </diagram>
</mxfile>